<svg xmlns="http://www.w3.org/2000/svg" viewBox="0 0 280 64" role="img" aria-labelledby="title">
  <title id="title">sendfable lockup on dark</title>
  <g transform="translate(0,0)">
    <path fill="#FFFDF8" d="M4 10c0-1.7 1.3-3 3-3h10.9c.8 0 1.6.3 2.2.9L22 10.5l1.9-2.1c.6-.6 1.4-.9 2.2-.9H37c1.7 0 3 1.3 3 3v25.5c0 1.7-1.3 3-3 3H26.1c-.8 0-1.6-.3-2.2-.9L22 36.3l-1.9 2.1c-.6.6-1.4.9-2.2.9H7c-1.7 0-3-1.3-3-3V10z"/>
    <path fill="#17213B" d="M8.5 11.5H19c.4 0 .7.1 1 .4l2 2.2 2-2.2c.3-.3.6-.4 1-.4h10.5v22.5H25c-.4 0-.7-.1-1-.4l-2-2.2-2 2.2c-.3.3-.6.4-1 .4H8.5v-22.5z"/>
    <path fill="#F26A4F" d="M13 17.5h16l-8 6-8-6z"/>
    <path fill="#17213B" d="M14.8 18.6h12.4L21 23l-6.2-4.4z"/>
    <path fill="#DCD8F9" d="M28 7h10.5c.8 0 1.5.7 1.5 1.5v12c0 .5-.3 1-.8 1.3L34 23.5l-5.2-2.5c-.5-.2-.8-.7-.8-1.2v-12c0-.8.7-1.5 1.5-1.5z"/>
  </g>
  <text x="52" y="40" font-family="Georgia, 'Times New Roman', serif" font-size="34" font-weight="600" letter-spacing="-0.8" fill="#FFFDF8">sendfable</text>
</svg>
