<svg xmlns="http://www.w3.org/2000/svg" viewBox="0 0 32 32">
  <rect width="32" height="32" rx="7" fill="#17213B"/>
  <path fill="#FFFDF8" d="M6 8.5c0-.8.7-1.5 1.5-1.5h6.2c.4 0 .8.2 1.1.4L16 9l1.2-1.6c.3-.3.7-.4 1.1-.4h6.2c.8 0 1.5.7 1.5 1.5v14c0 .8-.7 1.5-1.5 1.5h-6.2c-.4 0-.8-.2-1.1-.4L16 22l-1.2 1.6c-.3.3-.7.4-1.1.4H7.5c-.8 0-1.5-.7-1.5-1.5v-14z"/>
  <path fill="#1E8179" d="M9.5 13h13l-6.5 4.8L9.5 13z"/>
  <path fill="#F26A4F" d="M19 6h6c.6 0 1 .4 1 1v7.2c0 .4-.2.7-.6.9L22 16.5l-3.4-1.4c-.4-.2-.6-.5-.6-.9V7c0-.6.4-1 1-1z"/>
</svg>
